<?xml version="1.0" encoding="utf-8"?>
<!-- Generator: Adobe Illustrator 22.1.0, SVG Export Plug-In . SVG Version: 6.00 Build 0)  -->
<svg version="1.1" id="Layer_1" xmlns="http://www.w3.org/2000/svg" xmlns:xlink="http://www.w3.org/1999/xlink" x="0px" y="0px"
	 viewBox="0 0 205.2 37.5" style="enable-background:new 0 0 205.2 37.5;" xml:space="preserve">
<style type="text/css">
	.st0{display:none;}
	.st1{display:inline;fill:#FFFFFF;}
	.st2{display:inline;fill:none;stroke:#000000;stroke-width:8;stroke-linecap:round;stroke-miterlimit:10;}
	.st3{fill:#FFFFFF;}
	.st4{fill:none;stroke:#FFFFFF;stroke-miterlimit:10;}
</style>
<g id="Layer_4" class="st0">
	<path class="st1" d="M170.1,17.9c-3.7-0.7-6-1.3-7.3-2.7c-1.4-1.4-2-3.6-2.7-7.3c-0.1-0.3-0.3-0.5-0.6-0.5c-0.3,0-0.6,0.2-0.6,0.5
		c-0.7,3.7-1.3,6-2.7,7.3c-1.4,1.4-3.6,2-7.3,2.7c-0.3,0.1-0.5,0.3-0.5,0.6c0,0.3,0.2,0.6,0.5,0.6c3.7,0.7,6,1.3,7.3,2.7
		c1.4,1.4,2,3.6,2.7,7.3c0.1,0.3,0.3,0.5,0.6,0.5c0.3,0,0.6-0.2,0.6-0.5c0.7-3.7,1.3-6,2.7-7.3c1.4-1.4,3.6-2,7.3-2.7
		c0.3-0.1,0.5-0.3,0.5-0.6C170.7,18.3,170.5,18,170.1,17.9z"/>
</g>
<g id="Layer_2_1_" class="st0">
	<path class="st2" d="M-13-45.6c6.7-9.8,10.6-21.7,10.6-34.5c0-33.8-27.4-61.3-61.3-61.3s-61.3,27.4-61.3,61.3
		c0,33.8,27.4,61.3,61.3,61.3c14.6,0,28-5.1,38.6-13.7"/>
</g>
<g>
	<path class="st3" d="M2.6,28.6l-0.5-2.8c3.1-0.6,4.9-1.4,5.3-2.5c0.3-1.1-0.5-2.3-2.8-3.8c-2.3-1.4-3.3-3.1-3.3-5.2
		c0-3.2,2.7-5.2,8-5.8l0.5,2.8c-3.1,0.6-4.9,1.4-5.3,2.5C4,15,5,16.2,7.2,17.7s3.4,3.2,3.4,5.2C10.6,26.1,7.9,28,2.6,28.6z"/>
	<path class="st3" d="M11.7,8.7h3v10.3h6.9V8.7h3v19.8h-3v-6.5h-6.9v6.5h-3V8.7z"/>
	<path class="st3" d="M34.1,8.7l8.7,19.8h-3l-1.7-3.9h-7.9l-1.7,3.9h-3L34.1,8.7z M31.3,22.2h5.6l-2.8-6.6L31.3,22.2z"/>
	<path class="st3" d="M43.5,8.7L53.8,20V8.7h3v19.8L46.4,17v11.6h-3V8.7H43.5z"/>
	<path class="st3" d="M71,12.2c-0.5-0.2-1.1-0.4-1.6-0.4c-0.5,0-1.1-0.1-1.7-0.1c-0.6,0-1.4,0.1-2,0.2c-1,0.2-1.8,0.6-2.6,1.3
		c-0.8,0.6-1.4,1.5-1.8,2.6c-0.2,0.4-0.3,1-0.4,1.5c-0.1,0.5-0.1,1-0.1,1.5c0,0.5,0.1,1.2,0.2,1.8c0.1,0.6,0.4,1.2,0.6,1.8
		c0.5,1.1,1.3,1.9,2.3,2.5c1,0.5,2,1,3.3,1.1H69v-3.9h-2.5v-2.7h5.2v8.2c-0.3,0.3-0.9,0.6-1.6,0.9c-0.6,0.2-1.5,0.3-2.4,0.3
		c-1,0-1.8-0.1-2.7-0.2s-1.5-0.4-2.2-0.6c-1.2-0.6-2.3-1.5-3.3-2.8c-0.5-0.6-0.9-1.4-1.2-2.2c-0.3-0.9-0.5-1.8-0.6-2.9
		c0-0.2,0-0.4,0-0.6s0-0.4,0-0.6c0-0.8,0.1-1.6,0.2-2.4c0.2-0.8,0.4-1.5,0.8-2.2c0.2-0.3,0.4-0.8,0.6-1.1c0.2-0.3,0.5-0.8,0.9-1.1
		c0.3-0.3,0.6-0.6,0.9-1c0.3-0.3,0.6-0.5,1-0.8c0.6-0.4,1.4-0.8,2.3-1C65,9.2,65.9,9,66.8,9c0.1,0,0.2,0,0.3,0h0.3
		c1.5,0,3,0.3,4.3,0.9L71,12.2z"/>
	<path class="st3" d="M72.8,8.7h3v10.3h6.9V8.7h3v19.8h-3v-6.5h-6.9v6.5h-3V8.7z"/>
	<path class="st3" d="M95.2,8.7l8.7,19.8h-3l-1.8-3.9h-7.7l-1.7,3.9h-3L95.2,8.7z M92.4,22.2H98l-2.8-6.6L92.4,22.2z"/>
	<path class="st3" d="M104.6,8.7h3v19.8h-3V8.7z"/>
	<path class="st3" d="M116,8.8h3.9c5.7,0.9,8.7,4.2,9.1,9.9c-0.4,5.7-3.4,9-9.1,9.9H116V8.8z M119.8,25.6c4-0.8,6.1-3.1,6.2-6.9
		c-0.2-3.8-2.3-6-6.2-6.9H119v13.8C119,25.6,119.8,25.6,119.8,25.6z"/>
	<path class="st3" d="M129.7,8.8h11.2v2.6h-8.2v7.7h6v3h-6v3.4h8.2v3h-11.2C129.7,28.6,129.7,8.8,129.7,8.8z"/>
	<path class="st3" d="M141.9,8.7h3.3l4.6,12l4.6-12h3.3l-8,19.8L141.9,8.7z"/>
	<path class="st3" d="M166.5,9.1h3v16.8h6.9v3h-9.9V9.1z"/>
	<path class="st3" d="M177.4,9h3v19.8h-3V9z"/>
	<path class="st3" d="M181.1,9.1h10.8v2.6h-7.7v7.7h6v3h-6v6.5h-3V9.1z"/>
	<path class="st3" d="M192.8,9.1H204v2.6h-8.2v7.7h6v3h-6v3.4h8.2v3h-11.2V9.1z"/>
</g>
<line class="st4" x1="63.5" y1="31.8" x2="149.8" y2="31.8"/>
</svg>
