<?xml version="1.0" encoding="utf-8"?>
<!-- Generator: Adobe Illustrator 22.1.0, SVG Export Plug-In . SVG Version: 6.00 Build 0)  -->
<svg version="1.1" id="Layer_1" xmlns="http://www.w3.org/2000/svg" xmlns:xlink="http://www.w3.org/1999/xlink" x="0px" y="0px"
	 viewBox="0 0 205.2 37.5" style="enable-background:new 0 0 205.2 37.5;" xml:space="preserve">
<style type="text/css">
	.st0{display:none;}
	.st1{display:inline;fill:#FFFFFF;}
	.st2{display:inline;fill:none;stroke:#000000;stroke-width:8;stroke-linecap:round;stroke-miterlimit:10;}
	.st3{fill:#FFFFFF;}
</style>
<g id="Layer_4" class="st0">
	<path class="st1" d="M170.1,17.9c-3.7-0.7-6-1.3-7.3-2.7c-1.4-1.4-2-3.6-2.7-7.3c-0.1-0.3-0.3-0.5-0.6-0.5c-0.3,0-0.6,0.2-0.6,0.5
		c-0.7,3.7-1.3,6-2.7,7.3c-1.4,1.4-3.6,2-7.3,2.7c-0.3,0.1-0.5,0.3-0.5,0.6c0,0.3,0.2,0.6,0.5,0.6c3.7,0.7,6,1.3,7.3,2.7
		c1.4,1.4,2,3.6,2.7,7.3c0.1,0.3,0.3,0.5,0.6,0.5c0.3,0,0.6-0.2,0.6-0.5c0.7-3.7,1.3-6,2.7-7.3c1.4-1.4,3.6-2,7.3-2.7
		c0.3-0.1,0.5-0.3,0.5-0.6C170.7,18.3,170.5,18,170.1,17.9z"/>
</g>
<g id="Layer_2_1_" class="st0">
	<path class="st2" d="M-13-45.6c6.7-9.8,10.6-21.7,10.6-34.5c0-33.8-27.4-61.3-61.3-61.3s-61.3,27.4-61.3,61.3
		c0,33.8,27.4,61.3,61.3,61.3c14.6,0,28-5.1,38.6-13.7"/>
</g>
<g>
	<path class="st3" d="M0,0.7h8.5L18,15.9l9.5-15.2H36v36h-7.9V13.2L18,28.6h-0.2l-10-15.2v23.3H0V0.7z"/>
	<path class="st3" d="M45,0.7h7.9v36H45C45,36.7,45,0.7,45,0.7z"/>
	<path class="st3" d="M60.3,18.8v-0.1C60.3,8.5,68,0.1,79,0.1c6.8,0,10.8,2.3,14.2,5.6l-5,5.8C85.4,9,82.6,7.4,79,7.4
		c-6.1,0-10.4,5-10.4,11.2v0.1C68.6,24.9,72.8,30,79,30c4.1,0,6.6-1.6,9.5-4.2l5,5.1c-3.7,4-7.8,6.4-14.7,6.4
		C68.1,37.3,60.3,29.2,60.3,18.8z"/>
	<path class="st3" d="M99.8,0.7h7.9v15.7l14.6-15.7h9.6L117.2,16l15.3,20.7H123l-11.2-15.3l-4.2,4.3v11h-7.9L99.8,0.7L99.8,0.7z"/>
	<path class="st3" d="M137.3,0.7h27.1v7h-19.3v7.3h17v7h-17v7.6h19.5v7h-27.4V0.7L137.3,0.7z"/>
	<path class="st3" d="M181.9,22.5L168,0.7h9.3l8.6,14.4l8.7-14.4h9l-13.8,21.6v14.3h-7.9L181.9,22.5L181.9,22.5z"/>
</g>
</svg>
